<?xml version="1.0" encoding="utf-8"?>
<!-- Generator: Adobe Illustrator 25.1.0, SVG Export Plug-In . SVG Version: 6.00 Build 0)  -->
<svg version="1.1" id="Layer_1" xmlns="http://www.w3.org/2000/svg" xmlns:xlink="http://www.w3.org/1999/xlink" x="0px" y="0px"
	 viewBox="0 0 255 255" style="enable-background:new 0 0 255 255;" xml:space="preserve">
<style type="text/css">
	.st0{fill:#4F778A;}
	.st1{fill:#D0131F;}
	.st2{fill:#C61622;}
	.st3{fill:#C43D44;}
	.st4{fill:#D7101D;}
	.st5{fill:#D90E1C;}
	.st6{fill:#080F14;}
</style>
<g>
	<path class="st0" d="M137.96,221.89c-14.61,0.05-29.23,0.3-43.83,0.09c-16.87-0.23-30.72-6.88-40.73-20.7
		c-5.56-7.68-8.53-16.42-8.57-25.89c-0.14-31.85-0.27-63.7,0-95.54c0.21-24.25,19.28-44.42,43.58-46.04
		c12.06-0.8,24.2-0.41,36.3-0.56c0.56,0.16,1.11,0.33,1.67,0.49c1.39,1.71,2.54,3.71,4.22,5.06c3.76,3.03,7.78,5.74,11.7,8.58
		c0.53,0.48,1.05,0.95,1.58,1.43c1.56,1.64,3.12,3.27,4.68,4.91c-1.37,0.08-2.73,0.23-4.1,0.24c-17.24,0.03-34.48,0.02-51.72,0.07
		c-2.11,0.01-4.27,0.07-6.32,0.53c-13.35,2.97-21.45,12.98-21.48,26.85c-0.06,30.36,0.02,60.72,0.07,91.08
		c0,2.11,0.08,4.27,0.48,6.34c2.61,13.53,14,22.67,28.58,22.67c23.35,0,46.7-0.18,70.05-0.29c-1.22,0.14-2.44,0.4-3.65,0.4
		c-13.47,0.02-26.93,0-40.4,0.02c-1.93,0-3.86,0.16-6.65,0.29c1.4,1.47,2.15,2.38,3.01,3.15c2.63,2.36,5.19,4.83,7.99,6.98
		C128.84,215.42,133.44,218.61,137.96,221.89z"/>
	<path class="st1" d="M137.96,221.89c-4.52-3.28-9.12-6.46-13.54-9.87c-2.8-2.15-5.36-4.61-7.99-6.98
		c-0.86-0.77-1.61-1.68-3.01-3.15c2.78-0.13,4.72-0.28,6.65-0.29c13.47-0.02,26.93,0.01,40.4-0.02c1.22,0,2.44-0.26,3.65-0.4
		c3.04-0.61,6.31-0.71,9.08-1.92c11.92-5.23,16.7-15.02,16.73-27.57c0.06-27.97,0.07-55.93,0.22-83.9
		c0.04-6.65-0.19-13.2-2.76-19.46c0.02-0.52,0.04-1.05,0.07-1.57c3.95,2.88,3.46,7.67,4.22,11.54c1.36,6.95,1.32,14.17,1.88,21.27
		c0.02,0.2,0.27,0.39,0.33,0.46c3.57,0.61,7.04,1.12,10.47,1.8c2.73,0.54,4.22,0.13,4.11-3.22c-0.2-6.48-0.03-12.98-0.07-19.47
		c-0.02-3.12,0.83-6.48-2.49-8.79c-0.55-0.39-0.35-1.86-0.5-2.83c-0.06-1.08-0.12-2.16-0.19-3.38c-1,0.27-1.73,0.47-1.65,0.45
		c-0.97-2.51-1.81-4.67-2.65-6.83c-1-1.5-2-3-3-4.5c0.4-0.24,0.79-0.49,1.19-0.73c-0.15-0.16-0.29-0.33-0.44-0.49
		c-0.25,0.41-0.5,0.81-0.75,1.22c-2-2.99-4.01-5.97-6.01-8.96c0.52-0.02,1.03-0.04,1.55-0.05c10.59,8.96,16.92,20.28,17.05,34.22
		c0.3,32.49,0.3,64.99,0.08,97.48c-0.16,23.77-19.27,42.99-44.68,45.58c-3.57-0.03-7.14-0.13-10.71-0.07
		c-5.52,0.09-11.03,0.3-16.55,0.45l-0.34,0.03L137.96,221.89z"/>
	<path class="st2" d="M142.3,47.38c-3.92-2.84-7.94-5.55-11.7-8.58c-1.68-1.35-2.83-3.35-4.23-5.06
		c13.91-0.02,27.82-0.04,41.73-0.06c3.79,0.91,7.59,1.82,11.38,2.73c-0.13,0.15-0.27,0.3-0.4,0.45c-6.09-0.53-12.18-1.32-18.29-1.52
		c-8.21-0.26-16.44-0.06-24.66-0.06c-0.87,0-1.79-0.14-2.6,0.09c-0.58,0.16-1.36,0.79-1.42,1.28c-0.06,0.47,0.61,1.27,1.14,1.5
		c0.75,0.32,1.67,0.25,2.09,0.29c0.4,1.28,0.4,2.61,1.06,3.16c1.85,1.56,3.97,2.81,5.99,4.17l0,0c0.03,0.47,0.06,0.94,0.09,1.41
		L142.3,47.38z"/>
	<path class="st3" d="M168.1,33.67c-13.91,0.02-27.82,0.04-41.73,0.06c-0.55-0.16-1.11-0.33-1.67-0.49
		c13.89-0.06,27.77-0.12,41.66-0.14C166.95,33.11,167.52,33.48,168.1,33.67z"/>
	<path class="st2" d="M193.44,44.27c-0.52,0.02-1.03,0.04-1.55,0.05c-2.8-1.61-5.6-3.21-8.4-4.83c-1.48-0.86-2.94-1.75-4.41-2.63
		c0.13-0.15,0.27-0.3,0.4-0.45C184.14,39.03,188.79,41.65,193.44,44.27z"/>
	<path class="st0" d="M138.63,221.93c5.52-0.16,11.03-0.36,16.55-0.45c3.57-0.06,7.15,0.04,10.71,0.07
		C156.8,221.67,147.71,221.8,138.63,221.93z"/>
	<path class="st2" d="M161.9,53.94c-4.45-0.08-8.89-0.15-13.34-0.23c-1.56-1.64-3.12-3.27-4.68-4.91c0,0,0.14-0.15,0.14-0.15
		c0.84,0.19,2.07,0.09,2.44,0.61c2.2,3.11,5.39,2.52,8.44,2.53c1.37,0.01,2.81-0.28,4.07,0.09
		C160.06,52.18,160.93,53.23,161.9,53.94z"/>
	<path class="st2" d="M143.88,48.81c-0.53-0.48-1.05-0.95-1.58-1.43c0,0,0.2-0.19,0.2-0.19c0.51,0.49,1.02,0.97,1.53,1.46
		L143.88,48.81z"/>
	<path class="st4" d="M144.02,48.65c-0.51-0.49-1.02-0.97-1.53-1.46c-0.03-0.47-0.06-0.94-0.09-1.41c0.4-0.24,0.79-0.49,1.19-0.73
		c-0.15-0.16-0.29-0.32-0.44-0.49c-0.25,0.41-0.5,0.81-0.75,1.22c-2.02-1.37-4.14-2.61-5.99-4.17c-0.66-0.56-0.66-1.89-1.06-3.16
		c-0.42-0.05-1.34,0.03-2.09-0.29c-0.53-0.23-1.2-1.03-1.14-1.5c0.06-0.49,0.84-1.12,1.42-1.28c0.81-0.23,1.73-0.09,2.6-0.09
		c8.22,0,16.45-0.2,24.66,0.06c6.11,0.2,12.19,0.99,18.29,1.52c1.47,0.88,2.93,1.77,4.41,2.63c2.79,1.62,5.6,3.22,8.4,4.83
		c2,2.99,4.01,5.97,6.01,8.96l0,0c1,1.5,2,3,3,4.5c-0.5,0.5-1,1-1.5,1.5c-0.35,0.12-0.83,0.14-1.02,0.38
		c-2.56,3.29,0.65,6.42,0.34,9.69c-0.09,1,0.39,2.26,1.04,3.05c0.49,0.6,1.67,0.63,2.54,0.92c0.18-0.87,0.66-1.81,0.47-2.59
		c-0.46-1.86-1.23-3.64-1.88-5.46c1.5,0.75,3,1.5,4.5,2.25c0.15,0.97-0.05,2.45,0.5,2.83c3.32,2.31,2.47,5.67,2.49,8.79
		c0.05,6.49-0.13,12.99,0.07,19.47c0.1,3.35-1.38,3.76-4.11,3.22c-3.43-0.68-6.9-1.2-10.47-1.8c-0.05-0.07-0.31-0.25-0.33-0.46
		c-0.56-7.1-0.52-14.32-1.88-21.27c-0.76-3.87-0.27-8.66-4.22-11.54c-0.37-1.45-0.32-3.29-1.21-4.28c-1.76-1.97-4.06-3.46-6.1-5.19
		c-4.25-3.62-9.03-4.95-14.49-3.42c-1.25,0.02-2.51,0.05-3.76,0.07c-0.96-0.72-1.83-1.76-2.91-2.07c-1.26-0.36-2.71-0.08-4.07-0.09
		c-3.05-0.01-6.24,0.58-8.44-2.53C146.1,48.74,144.86,48.84,144.02,48.65z M193.28,65.43c0.09-0.09,0.19-0.19,0.28-0.28
		c-0.31-0.36-0.61-0.73-0.92-1.09c-0.15,0.15-0.3,0.3-0.45,0.45c0.36,0.31,0.73,0.61,2.14,0.74c-0.36,0.02-0.72,0.05-1.08,0.07
		c0.21,0.86,0.42,1.73,0.64,2.59c0.29-0.06,0.59-0.13,0.88-0.19C194.61,66.9,194.47,66.07,193.28,65.43z M194.9,77.28
		c-1.94,1.87-2.18,7.43,0,10.54C194.91,83.9,194.91,80.59,194.9,77.28c0.98-0.6,1.96-1.19,2.94-1.79c-0.89-0.97-1.78-1.93-2.66-2.9
		c-0.29,0.25-0.59,0.5-0.88,0.76C194.5,74.66,194.7,75.97,194.9,77.28z M192.2,70.73c0.2,0.09,0.45,0.29,0.59,0.23
		c0.15-0.06,0.19-0.37,0.28-0.57c-0.2-0.09-0.45-0.29-0.59-0.23C192.34,70.21,192.29,70.53,192.2,70.73z"/>
	<path class="st2" d="M165.66,53.87c5.46-1.54,10.24-0.2,14.49,3.42c2.04,1.73,4.34,3.22,6.1,5.19c0.89,0.99,0.83,2.83,1.21,4.28
		c-0.02,0.52-0.04,1.05-0.07,1.57C182.56,59.88,175.54,54.72,165.66,53.87z"/>
	<path class="st5" d="M205.4,67.53c-1.5-0.75-3-1.5-4.5-2.25c-0.5-2-1-4-1.5-6c0.5-0.5,1-1,1.5-1.5c0.84,2.16,1.68,4.32,2.65,6.83
		c-0.07,0.02,0.65-0.18,1.65-0.45C205.28,65.37,205.34,66.45,205.4,67.53z"/>
	<path class="st4" d="M197.9,53.28c0.25-0.41,0.5-0.81,0.75-1.22c0.15,0.16,0.29,0.33,0.44,0.49
		C198.7,52.79,198.3,53.04,197.9,53.28C197.91,53.28,197.9,53.28,197.9,53.28z"/>
	<path class="st6" d="M83.83,181.73c0-16.2,0-32.01,0-47.96c29.23,0,58.26,0,87.49,0c0,16.01,0,31.83,0,47.97
		c-6.34,0-12.75,0-19.61,0c0-9.23,0-18.52,0-28.01c-16.25,0-32.07,0-48.24,0c0,9.22,0,18.53,0,28
		C96.79,181.73,90.46,181.73,83.83,181.73z"/>
	<path class="st6" d="M151.88,94.98c0-7.14,0-14.1,0-21.14c6.59,0,12.9,0,19.46,0c0,13.78,0,27.36,0,41.25c-29.01,0-58.15,0-87.5,0
		c0-13.7,0-27.39,0-41.27c6.45,0,12.77,0,19.39,0c0,7.01,0,13.95,0,21.16C119.44,94.98,135.36,94.98,151.88,94.98z"/>
	<path class="st1" d="M199.4,59.28c0.5,2,1,4,1.5,6c0.65,1.81,1.42,3.6,1.88,5.46c0.19,0.78-0.29,1.72-0.47,2.59
		c-0.87-0.29-2.04-0.32-2.54-0.92c-0.65-0.79-1.14-2.05-1.04-3.05c0.31-3.27-2.9-6.4-0.34-9.69
		C198.58,59.42,199.06,59.4,199.4,59.28z"/>
	<path class="st1" d="M194.91,77.28c0,3.31,0,6.62,0,10.54C192.72,84.71,192.96,79.15,194.91,77.28L194.91,77.28z"/>
	<path class="st1" d="M194.9,77.28c-0.2-1.31-0.41-2.62-0.61-3.93c0.29-0.25,0.59-0.5,0.88-0.76c0.89,0.97,1.78,1.93,2.66,2.9
		C196.86,76.08,195.88,76.68,194.9,77.28C194.91,77.28,194.9,77.28,194.9,77.28z"/>
	<path class="st1" d="M194.32,65.25c0.14,0.82,0.29,1.64,0.43,2.47c-0.29,0.06-0.59,0.13-0.88,0.19c-0.21-0.86-0.42-1.73-0.64-2.59
		C193.6,65.3,193.96,65.28,194.32,65.25z"/>
	<path class="st2" d="M142.41,45.78c0.25-0.41,0.5-0.81,0.75-1.22c0.15,0.16,0.29,0.32,0.44,0.49
		C143.2,45.29,142.8,45.54,142.41,45.78C142.4,45.78,142.41,45.78,142.41,45.78z"/>
	<path class="st1" d="M192.2,70.73c0.09-0.2,0.13-0.51,0.28-0.57c0.14-0.06,0.39,0.14,0.59,0.23c-0.09,0.2-0.13,0.52-0.28,0.57
		C192.65,71.02,192.41,70.82,192.2,70.73z"/>
	<path class="st1" d="M193.28,65.43c-0.36-0.31-0.73-0.61-1.09-0.92c0.15-0.15,0.3-0.3,0.45-0.45c0.31,0.36,0.61,0.73,0.92,1.09
		C193.46,65.25,193.37,65.34,193.28,65.43z"/>
</g>
</svg>
